<?xml version="1.0" standalone="no"?><!DOCTYPE svg PUBLIC "-//W3C//DTD SVG 1.1//EN" "http://www.w3.org/Graphics/SVG/1.1/DTD/svg11.dtd"><svg width="100%" height="100%" viewBox="0 0 32 32" version="1.1" xmlns="http://www.w3.org/2000/svg" xmlns:xlink="http://www.w3.org/1999/xlink" xml:space="preserve" style="fill-rule:evenodd;clip-rule:evenodd;stroke-linejoin:round;stroke-miterlimit:1.41421;"><g id="Layer1"><path d="M16,32c-2.0601,-0.0130438 -4.73032,-0.444227 -6.58503,-1.41386c-4.47369,-2.33882 -7.84866,-5.97414 -9.05414,-10.9735c-2.32469,-9.64094 5.62846,-19.474 15.4326,-19.6113c9.63705,-0.135048 17.9405,9.32838 16.0286,18.9102c-1.03036,5.1638 -4.3914,8.98047 -8.88483,11.5102c-1.79934,1.013 -4.49738,1.50886 -6.52473,1.57307c-0.206487,0.00392164 -0.206085,0.00391227 -0.41248,0.00521909M16,30c1.80265,-0.0114138 4.13806,-0.387669 5.76107,-1.23624c3.91471,-2.04677 6.86948,-5.22884 7.92448,-9.60374c2.03179,-8.42553 -4.92524,-17.0516 -13.5043,-17.1588c-8.58404,-0.10731 -15.7678,8.3385 -13.9404,16.8216c0.948481,4.40304 3.82459,7.65289 7.69017,9.79722c1.59416,0.884317 3.91364,1.31865 5.7072,1.37546c0.181114,0.00343978 0.180761,0.0034313 0.361833,0.00457778" style="fill:#000;fill-rule:nonzero;"/><path d="M13.6562,23.3702c-0.300478,-0.00882996 -0.571753,-0.133523 -0.773968,-0.354002l-6.40113,-7.56498l1.52677,-1.29188l5.68172,6.71475l10.3855,-10.9048l1.44828,1.37931l-11.1536,11.7113l-0.0573701,0.0556103c-0.172871,0.142648 -0.288233,0.195631 -0.497169,0.240248c-0.0792199,0.0103943 -0.0789597,0.0103811 -0.159017,0.0144308" style="fill:#000;fill-rule:nonzero;"/></g></svg>